<?xml version="1.0" encoding="iso-8859-1"?>
<!-- Generator: Adobe Illustrator 29.8.2, SVG Export Plug-In . SVG Version: 9.03 Build 0)  -->
<svg version="1.1"
	 id="svg2" xmlns:svg="http://www.w3.org/2000/svg" xmlns:inkscape="http://www.inkscape.org/namespaces/inkscape" xmlns:sodipodi="http://sodipodi.sourceforge.net/DTD/sodipodi-0.dtd"
	 xmlns="http://www.w3.org/2000/svg" xmlns:xlink="http://www.w3.org/1999/xlink" x="0px" y="0px" viewBox="0 0 1080 1080"
	 style="enable-background:new 0 0 1080 1080;" xml:space="preserve">
<sodipodi:namedview  bordercolor="#000000" borderopacity="0.25" id="namedview4" inkscape:deskcolor="#d1d1d1" inkscape:pagecheckerboard="0" inkscape:pageopacity="0.0" inkscape:showpageshadow="2" pagecolor="#ffffff">
	</sodipodi:namedview>
<g>
	<g>
		<g>
			<linearGradient id="SVGID_1_" gradientUnits="userSpaceOnUse" x1="103.3445" y1="293.9778" x2="982.9345" y2="789.4082">
				<stop  offset="0.1076" style="stop-color:#1584CE"/>
				<stop  offset="1" style="stop-color:#32AFED"/>
			</linearGradient>
			<path style="fill:url(#SVGID_1_);" d="M1041,478.47c-0.73-8.28-3.65-12.98-13.57-13.78c-16.92-1.34-33.62-5.15-50.49-7.38
				c-7.54-0.99-10.52-4.45-12.13-11.92c-10.89-50.39-30.47-97.3-58.71-140.47c-4.14-6.32-4.31-10.74,0.49-16.8
				c10.56-13.34,20.02-27.55,30.54-40.93c4.98-6.34,5.97-11.07,0.47-17.88c-26.18-32.46-55.44-61.73-88.12-87.67
				c-5.89-4.67-10.3-5.43-16.62-0.38c-13.73,10.94-28.28,20.84-42.18,31.57c-5.22,4.03-9.3,5.41-15.48,1.34
				c-44.04-29.02-92.24-48.36-143.72-59.29c-8.68-1.84-9.74-7.09-10.74-13.27c-2.64-16.25-5.32-32.53-7.07-48.89
				c-0.88-8.19-3.51-11.98-12.33-12.93c-42-4.52-83.91-4.69-125.87,0.43c-6.46,0.79-9.13,3.19-10.01,9.56
				c-2.46,17.88-5.81,35.65-8.13,53.55c-0.86,6.63-2.64,10.05-9.95,11.66c-51.39,11.32-99.54,30.7-143.58,59.72
				c-5.87,3.86-10.17,3.43-15.65-0.81c-14.31-11.07-29.22-21.37-43.59-32.36c-5.03-3.84-8.77-4.07-13.87-0.03
				c-33.54,26.58-63.62,56.54-90.04,90.22c-4.32,5.51-4.37,9.78,0.1,15.44c10.86,13.79,20.83,28.28,31.61,42.12
				c4.5,5.77,5.08,10.16,0.84,16.71c-28.06,43.26-47.6,90.18-58.26,140.65c-1.68,7.92-4.77,11.78-13.38,12.6
				c-15.86,1.51-31.61,4.31-47.39,6.68c-12.71,1.91-14.19,3.31-15.51,15.77c-1.07,10.04-1.76,20.13-2.53,30.2
				c-2.3,30.37,0.28,60.58,3.02,90.78c0.74,8.12,4.89,11.8,13.29,12.66c16.39,1.69,32.64,4.68,49.01,6.62
				c7.86,0.92,11.92,3.74,13.75,12.26c10.8,50.4,30.36,97.33,58.52,140.54c4.08,6.26,4.46,10.77-0.29,16.8
				c-10.52,13.38-20.14,27.47-30.6,40.9c-4.88,6.26-6.01,10.91-0.43,17.9c26.36,33.06,56.07,62.57,89.37,88.63
				c5.94,4.65,9.66,3.99,15.11-0.27c13.83-10.83,28.25-20.89,42.15-31.63c5.85-4.52,10.45-4.92,17.05-0.66
				c43.35,27.92,90.3,47.43,140.83,58.06c7.88,1.66,11.65,5.59,12.62,13.65c1.95,16.35,4.59,32.61,7,48.91
				c1.76,11.91,1.81,11.73,13.63,13.14c40.38,4.8,80.71,4.22,121.14,0.17c9.51-0.96,12.86-4.95,14.02-13.49
				c2.2-16.32,5.85-32.5,7.03-48.88c0.71-9.88,5.73-12.4,13.61-14.11c49.41-10.71,95.31-29.99,137.74-57.3
				c7.34-4.73,12.36-5.53,19.54,0.31c13.19,10.73,27.31,20.34,41.09,30.35c2.53,1.84,4.82,4.27,9.34,4.28
				c1.48-0.96,3.78-2.25,5.85-3.84c33.97-26.09,63.88-56.21,90.08-90.09c3.9-5.04,4.24-8.79,0.23-13.99
				c-11.04-14.33-21.29-29.26-32.42-43.51c-4.21-5.39-5.01-9.27-1.07-15.37c28.59-44.21,48.6-92.04,59.13-143.68
				c1.23-6.06,3.88-8.92,10.32-9.78c17.91-2.42,35.65-6.27,53.61-8.23c8.37-0.91,11.04-4.87,11.68-11.97
				c1.05-11.65,2.24-23.3,3.01-34.97C1046,536.79,1043.56,507.63,1041,478.47 M441.79,200.72c-0.56,21.39-5.4,42.05-8.21,62.9
				c-5.74,42.58-12.44,85.03-18.73,127.53c-0.15,1.05-0.28,2.11-0.45,3.15c-2.97,17.74-2.99,17.54-21.49,20.35
				c-59.32,9.03-118.62,18.24-177.93,27.31c-5.16,0.79-10.4,2.47-15.6,0.01C227.33,323.28,341.48,220.69,441.79,200.72
				 M184.58,543.31c-0.06-15.69-0.46-16.1,15.68-18.61c57.14-8.88,114.32-17.46,173.71-26.49c-2.21,14.95-4.23,27.47-3.85,40.17
				c0.32,10.6,0.14,21.17,2.42,31.69c2.26,10.48,1.39,11.47-9.06,10.28c-15.29-1.73-30.51-4.2-45.73-6.49
				c-40.96-6.14-81.87-12.66-122.89-18.3C186.32,554.4,184.61,550.84,184.58,543.31 M442.29,879.63
				c-107.83-23.12-216.15-128.48-242.6-241.05c11.37-2.65,22.2,1.61,33.02,3.12c56.34,7.86,112.5,16.94,168.86,24.64
				c11.68,1.6,11.58,9.33,12.76,16.71c4.85,30.42,9.17,60.91,13.77,91.37c4.76,31.5,9.62,62.99,14.46,94.48
				C443.11,872.5,444.73,876.11,442.29,879.63 M505.76,319.36c5.51-40.53,12.01-80.92,18.18-121.36c0.68-4.51-0.8-10.83,4.9-12.36
				c7.1-1.91,15.09-2.64,21.88,0.47c4.4,2.02,3.84,8.35,4.58,12.92c3.44,21.51,6.62,43.05,9.86,64.59
				c4.97,33.1,9.93,66.2,14.87,99.3c1.57,10.52,1.14,11.59-9.53,9.62c-23.44-4.32-46.62-3.17-71.84,2.13
				C499.07,354.66,503.35,337.09,505.76,319.36 M573.88,763.53c-5.85,39.38-11.91,78.73-17.74,118.12
				c-1.92,12.99-2.38,13.67-14.17,13.96c-13.01,0.33-15.23-1.09-17.09-13.17c-5.74-37.25-11.21-74.55-16.8-111.82
				c-3.14-20.94-6.31-41.87-9.77-64.75c27.78,4.31,54.51,6.05,83.82-1.12C579.17,725.96,576.66,744.77,573.88,763.53 M539.29,630.42
				c-49.95,0.38-89.81-41.24-89.49-91.22c0.33-49.99,40.84-89.98,90.9-89.71c49.76,0.26,89.38,41.04,89.64,91.12
				C630.55,582.45,597.78,629.98,539.29,630.42 M881.35,442.96c-25.86-3.71-49.98-7.09-74.08-10.66
				c-39.96-5.92-79.9-11.96-119.86-17.92c-2.11-0.31-4.23-0.5-6.35-0.69c-8.9-0.81-13.76-4.5-15.05-14.48
				c-3.76-28.95-8.82-57.73-13.19-86.6c-5.64-37.22-11.1-74.47-16.66-111.88C728.96,216.31,848.43,314.35,881.35,442.96
				 M808.67,772.48c-45.78,52.5-102.13,88.77-170.29,108.67c-0.83-15.81,2.9-29.71,4.84-43.68c6.86-49.42,14.58-98.72,21.82-148.08
				c3.1-21.15,2.87-21.56,24.11-24.82c63.46-9.73,126.98-19.13,193.13-29.06C867.88,688.09,843.14,732.96,808.67,772.48
				 M894.69,549.55c-1.8,4.25-5.6,4.4-9.22,4.95c-28.89,4.37-57.78,8.67-86.67,13.05c-25.2,3.83-50.39,7.75-75.6,11.61
				c-3.15,0.48-6.33,0.78-9.49,1.19c-5.49,0.71-8.14-1.34-6.93-7.12c4.98-23.75,3.78-47.48-0.27-71.2
				c-0.15-0.84,0.69-1.85,1.52-3.91c23.18,3.33,46.67,6.64,70.14,10.07c33.63,4.92,67.25,10.03,100.9,14.86
				C893.87,525.18,900.42,536.06,894.69,549.55"/>
		</g>
	</g>
</g>
</svg>
